<svg xmlns="http://www.w3.org/2000/svg" width="24.013" height="24.051" viewBox="0 0 24.013 24.051">
  <g id="bxl-instagram" transform="translate(-3.002 -3.005)">
    <path id="パス_228" data-name="パス 228" d="M13.541,7.377a6.166,6.166,0,1,0,6.166,6.166,6.166,6.166,0,0,0-6.166-6.166Zm0,10.17a4.006,4.006,0,1,1,4.006-4.006A4.006,4.006,0,0,1,13.541,17.547Z" transform="translate(1.458 1.458)" fill="#212121"/>
    <circle id="楕円形_13" data-name="楕円形 13" cx="1.437" cy="1.437" r="1.437" transform="translate(19.972 7.171)" fill="#212121"/>
    <path id="パス_229" data-name="パス 229" d="M26.379,7.147a6.141,6.141,0,0,0-3.511-3.51,8.809,8.809,0,0,0-2.915-.56C18.669,3.021,18.262,3,15.006,3s-3.674,0-4.947.072a8.74,8.74,0,0,0-2.912.56,6.134,6.134,0,0,0-3.511,3.51,8.781,8.781,0,0,0-.559,2.915C3.019,11.345,3,11.751,3,15.009s0,3.671.075,4.947a8.8,8.8,0,0,0,.559,2.916,6.147,6.147,0,0,0,3.512,3.51,8.78,8.78,0,0,0,2.914.6c1.284.056,1.691.073,4.947.073s3.674,0,4.947-.073a8.821,8.821,0,0,0,2.915-.559,6.151,6.151,0,0,0,3.511-3.511A8.781,8.781,0,0,0,26.941,20c.057-1.283.075-1.69.075-4.947s0-3.671-.075-4.947A8.776,8.776,0,0,0,26.379,7.147ZM24.755,19.858a6.725,6.725,0,0,1-.415,2.251,3.983,3.983,0,0,1-2.283,2.282,6.647,6.647,0,0,1-2.227.415c-1.267.059-1.624.073-4.873.073s-3.583,0-4.874-.073a6.614,6.614,0,0,1-2.226-.415,3.98,3.98,0,0,1-2.292-2.282,6.774,6.774,0,0,1-.415-2.226c-.057-1.267-.071-1.624-.071-4.873s0-3.582.071-4.874a6.718,6.718,0,0,1,.415-2.25A3.982,3.982,0,0,1,7.859,5.6a6.681,6.681,0,0,1,2.226-.415c1.268-.057,1.624-.073,4.874-.073s3.583,0,4.873.073a6.614,6.614,0,0,1,2.227.415A3.988,3.988,0,0,1,24.34,7.887a6.774,6.774,0,0,1,.415,2.226c.057,1.268.072,1.624.072,4.874s0,3.6-.057,4.873h-.015Z" transform="translate(0 0)" fill="#212121"/>
  </g>
</svg>
