<svg xmlns="http://www.w3.org/2000/svg" width="26.68" height="18.679" viewBox="0 0 26.68 18.679">
  <path id="bxl-youtube" d="M28.123,7.937a3.341,3.341,0,0,0-2.349-2.354C23.687,5.009,15.335,5,15.335,5S6.985,4.991,4.9,5.539a3.413,3.413,0,0,0-2.354,2.37,35.322,35.322,0,0,0-.556,6.417,35.106,35.106,0,0,0,.541,6.417A3.34,3.34,0,0,0,4.877,23.1c2.109.573,10.438.583,10.438.583s8.352.009,10.439-.537a3.353,3.353,0,0,0,2.356-2.35,35.164,35.164,0,0,0,.556-6.415,33.438,33.438,0,0,0-.543-6.44Zm-15.459,10.4.007-8,6.941,4.006Z" transform="translate(-1.986 -5)" fill="#212121"/>
</svg>
