<svg xmlns="http://www.w3.org/2000/svg" width="90" height="53.989" viewBox="0 0 90 53.989">
  <path id="パス_231" data-name="パス 231" d="M40.606,26.219,40,27.886H35.641l-3.562,9.782H29.187l3.558-9.782H28.377l.606-1.668m15.906,5.737c1.374-3.775,4.462-5.9,7.492-5.9,2.543,0,4.6,1.5,3.077,5.7-1.3,3.579-4.131,6.073-7.529,6.073s-4.279-2.48-3.048-5.857Zm3.1.125c-1.013,2.791-.821,4.177.556,4.177.982,0,2.38-.712,3.7-4.344.981-2.685,1.111-4.308-.463-4.308-1.43,0-2.587,1.18-3.785,4.454Zm20.587-5.864a6.2,6.2,0,0,1,3.008.469,1.581,1.581,0,0,1,.605,2.146,4.965,4.965,0,0,1-3.572,2.786,3.453,3.453,0,0,1,1.62.644,1.789,1.789,0,0,1,.369,2.156,4.917,4.917,0,0,1-3.258,2.857,10.829,10.829,0,0,1-3.494.393h-3.37l4.169-11.452Zm-3.942,9.844a3.84,3.84,0,0,0,1.67-.232,2.741,2.741,0,0,0,1.448-1.645c.251-.686.2-1.208-.213-1.468a3.238,3.238,0,0,0-1.686-.249H65.2l-1.311,3.595h.75ZM66.4,30.983a3.832,3.832,0,0,0,1.547-.226,2.476,2.476,0,0,0,1.3-1.5c.214-.573.163-1.029-.155-1.254a2.852,2.852,0,0,0-1.453-.216H66.9l-1.167,3.2Zm17.258-4.764-2.259,6.2c-.546,1.5-.749,2.146-.589,2.73a1.359,1.359,0,0,0,1.445.911,3.052,3.052,0,0,0,2.375-1.226,8.1,8.1,0,0,0,1.157-2.427l2.253-6.189H90l-2.32,6.361c-.318.886-1.621,5.256-6.635,5.256-1.171,0-3-.356-3.258-2.2a6.285,6.285,0,0,1,.63-2.955l2.351-6.459h2.89M46.317,42.188a2.445,2.445,0,0,0-1.083-.267c-1.5,0-2.49,1.767-2.9,2.877s-.691,2.382.256,2.68a1.656,1.656,0,0,0,.775.055l.708-1.951h-.931l.368-1.026h2.625l-1.271,3.5a6.3,6.3,0,0,1-2.44.563c-2.164,0-2.942-1.6-2.12-3.866a5.64,5.64,0,0,1,5.089-3.947,3.6,3.6,0,0,1,1.7.375Zm6.623.641-.459,1.418c.472-.692,1.248-1.509,1.976-1.509a1.4,1.4,0,0,1,.489.091l-.8,1.473a1.73,1.73,0,0,0-.43-.069,1.616,1.616,0,0,0-1.2.715,7.819,7.819,0,0,0-.786,1.691L51.059,48.5h-1.7l2.067-5.675H52.94Zm4.836,2.89a4.216,4.216,0,0,1,3.815-3.006c1.807,0,2.071,1.373,1.519,2.885a4.206,4.206,0,0,1-3.8,3.023c-1.678,0-2.142-1.267-1.545-2.892Zm1.835-.089c-.452,1.235-.629,2.085.079,2.085.677,0,1.155-.857,1.616-2.116.467-1.283.542-2-.085-2-.744,0-1.23.95-1.609,2.023Zm10.79-2.8-1.241,3.384a2.458,2.458,0,0,0-.212.879c.011.208.132.356.419.356a1.258,1.258,0,0,0,.967-.669,6.279,6.279,0,0,0,.528-1.177l1.012-2.773h1.688L71.5,48.5h-1.48l.241-.9a2.743,2.743,0,0,1-1.993,1.022,1.012,1.012,0,0,1-1.139-1,3.387,3.387,0,0,1,.309-1.322L68.7,42.83h1.7Zm9.672,0-.238.9a2.747,2.747,0,0,1,1.954-1.018c1.2,0,1.528,1.071.9,2.816-.657,1.793-1.82,3.091-3.107,3.091a.993.993,0,0,1-1.078-.864L77.456,50.6h-1.7l2.833-7.767h1.479m-.825,2.855c-.3.83-.515,1.762.162,1.762.659,0,1.13-.9,1.456-1.818.366-.992.47-1.744-.134-1.744-.626,0-1.116.783-1.481,1.787ZM38.874,30.944,30.468,53.985v0h1.867L40.741,30.95v-.006m1.443-9.066-.552,1.546v0H74.006l.547-1.551M41.023,0,32.618,23.04v0h1.867L42.891,0V0M.549,30.643,0,32.2H26.8l.55-1.557" fill="#16191a"/>
</svg>
