<svg xmlns="http://www.w3.org/2000/svg" viewBox="0 0 32 32">
  <defs>
    <style>
      .a {
        fill: #16191a;
      }
    </style>
  </defs>
  <path class="a" d="M22.87744,7.65869a19.59083,19.59083,0,0,0-13.75537,0A2.51278,2.51278,0,0,0,7.5,10V23.73438a2.50334,2.50334,0,0,0,2.18994,2.48046A50.87914,50.87914,0,0,0,16,26.60791a50.87914,50.87914,0,0,0,6.31006-.39307A2.50334,2.50334,0,0,0,24.5,23.73438V10A2.51252,2.51252,0,0,0,22.87744,7.65869ZM23.5,19.5H22a.5.5,0,0,1,0-1h1.5Zm0-2H22a1.5,1.5,0,0,0,0,3h1.5v1H8.5v-1H10a1.5,1.5,0,0,0,0-3H8.5v-.99432a1.444,1.444,0,0,0,.314.09979A57.97625,57.97625,0,0,0,16,17.05273a58.06932,58.06932,0,0,0,7.186-.44726,1.444,1.444,0,0,0,.314-.09979Zm-10,5h5v1h-5Zm-5-4H10a.5.5,0,0,1,0,1H8.5Zm3-2.64716V7.97961a18.5701,18.5701,0,0,1,4-.54565v8.60327C14.16479,16.02551,12.83142,15.95844,11.5,15.85284ZM8.5,10a1.507,1.507,0,0,1,.97314-1.40479c.33838-.12683.68348-.22656,1.02686-.333v7.49713c-.52057-.05054-1.04291-.08112-1.562-.14606a.50106.50106,0,0,1-.438-.49609Zm15,13.73438a1.50238,1.50238,0,0,1-1.314,1.48828,49.85757,49.85757,0,0,1-12.37208,0A1.50238,1.50238,0,0,1,8.5,23.73438V22.5h4V24a.49971.49971,0,0,0,.5.5h6a.49971.49971,0,0,0,.5-.5V22.5h4Zm0-8.61719a.50106.50106,0,0,1-.438.49609,56.89611,56.89611,0,0,1-6.562.424V7.434a18.56506,18.56506,0,0,1,6.02637,1.16125A1.50678,1.50678,0,0,1,23.5,10Z"/>
</svg>
