<svg xmlns="http://www.w3.org/2000/svg" viewBox="0 0 32 32">
  <defs>
    <style>
      .a {
        fill: #16191a;
      }
    </style>
  </defs>
  <path class="a" d="M26,14a.49971.49971,0,0,0,.5-.5v-2a.50048.50048,0,0,0-.33789-.47314c-.061-.021-6.18311-2.15186-9.80371-5.87549a.51538.51538,0,0,0-.7168,0C12.021,8.875,5.89893,11.00586,5.83789,11.02686A.50048.50048,0,0,0,5.5,11.5v2A.49971.49971,0,0,0,6,14H9.5v3H8a2.50294,2.50294,0,0,0-2.5,2.5v4a.5.5,0,0,0,1,0V22h5v1.5a.5.5,0,0,0,1,0V20.707l1.85352-1.85351A.49965.49965,0,0,0,14.5,18.5v-1a2.49032,2.49032,0,0,0-4-1.99023V14h5V25H6a.5.5,0,0,0,0,1H26a.5.5,0,0,0,0-1H16.5V14h5v3H20a2.50294,2.50294,0,0,0-2.5,2.5v4a.5.5,0,0,0,1,0V22h5v1.5a.5.5,0,0,0,1,0V20.707l1.85352-1.85351A.49965.49965,0,0,0,26.5,18.5v-1a2.49032,2.49032,0,0,0-4-1.99023V14ZM12,16a1.50164,1.50164,0,0,1,1.5,1.5v.793l-1,1V18a.5.5,0,0,0-1,0v3h-5V19.5A1.50164,1.50164,0,0,1,8,18h2a.49971.49971,0,0,0,.5-.5A1.50164,1.50164,0,0,1,12,16Zm12,0a1.50164,1.50164,0,0,1,1.5,1.5v.793l-1,1V18a.5.5,0,0,0-1,0v3h-5V19.5A1.50164,1.50164,0,0,1,20,18h2a.49971.49971,0,0,0,.5-.5A1.50164,1.50164,0,0,1,24,16ZM6.5,11.85156a29.85039,29.85039,0,0,0,9.5-5.646,29.85039,29.85039,0,0,0,9.5,5.646V13H6.5Z"/>
</svg>
