<svg xmlns="http://www.w3.org/2000/svg" viewBox="0 0 32 32">
  <defs>
    <style>
      .a {
        fill: #16191a;
      }
    </style>
  </defs>
  <path class="a" d="M30.5,16a6.40924,6.40924,0,0,0-6.29932-6.5,6.16163,6.16163,0,0,0-4.46,1.90967L16,15.28076l-3.74121-3.87109A5.70859,5.70859,0,0,0,8,9.5,6.587,6.587,0,0,0,1.5,16c0,.08759.01.1731.01367.25995A.47708.47708,0,0,0,1.5,16.32764V24a.5.5,0,0,0,1,0V19.39752a6.70512,6.70512,0,0,0,3,2.58313V24a.5.5,0,0,0,1,0V22.31A6.23975,6.23975,0,0,0,8,22.5a5.6352,5.6352,0,0,0,1.5-.20349V24a.5.5,0,0,0,1,0V21.91034a6.55217,6.55217,0,0,0,1.75879-1.32L13.5,19.30609V24a.5.5,0,0,0,1,0V18.27142l1.8584-1.92279.00293-.00293L17.5,15.16742V24a.5.5,0,0,0,1,0V14.13263L20.45947,12.105A5.32116,5.32116,0,0,1,21.5,11.2887V24a.5.5,0,0,0,1,0V10.81256a4.84635,4.84635,0,0,1,3-.13837V24a.5.5,0,0,0,1,0V11.05243A5.52125,5.52125,0,0,1,29.5,16a.49186.49186,0,0,0,.033.16382.49186.49186,0,0,0-.033.16382V24a.5.5,0,0,0,1,0V16.32764a.49186.49186,0,0,0-.033-.16382A.49186.49186,0,0,0,30.5,16ZM11.54,19.895A4.75785,4.75785,0,0,1,8,21.5,5.57348,5.57348,0,0,1,2.5,16,5.466,5.466,0,0,1,4,12.27679v5.70948a4.61163,4.61163,0,0,0,1,1.31512V11.4231a5.43292,5.43292,0,0,1,2.5-.89692v9.92163A4.229,4.229,0,0,0,8,20.5a3.7113,3.7113,0,0,0,.5-.0509V10.5509A4.60643,4.60643,0,0,1,11,11.63116v7.38367l1-1.03461V12.58087L15.30469,16ZM25.23334,8.5h-2v-1h2ZM20.40259,9.52039,20,8.605l1.83075-.80524.40259.91541Zm7.637.01709-1.81067-.84937.42469-.90533,1.81066.84936Z"/>
</svg>
