<svg xmlns="http://www.w3.org/2000/svg" viewBox="0 0 32 32">
  <defs>
    <style>
      .a {
        fill: #16191a;
      }
    </style>
  </defs>
  <path class="a" d="M20.5,20h-1V18h1Zm0-8h-1v2h1Zm0,3h-1v2h1ZM6,22.5a.49971.49971,0,0,1-.5-.5V18a.49971.49971,0,0,1,.5-.5,1.5,1.5,0,0,0,0-3,.49971.49971,0,0,1-.5-.5V10A.49971.49971,0,0,1,6,9.5H24a.49971.49971,0,0,1,.5.5V22a.49971.49971,0,0,1-.5.5Zm13.5-1V21h1v.5h3v-11h-3V11h-1v-.5H6.5v3.05029a2.50027,2.50027,0,0,1,0,4.89942V21.5Zm6.5-10a.49971.49971,0,0,0-.5.5V23.5H8a.5.5,0,0,0,0,1H26a.49971.49971,0,0,0,.5-.5V12A.49971.49971,0,0,0,26,11.5ZM20,10"/>
</svg>
