<svg xmlns="http://www.w3.org/2000/svg" viewBox="0 0 32 32">
  <defs>
    <style>
      .a {
        fill: #16191a;
      }
    </style>
  </defs>
  <path class="a" d="M23.4248,8.5752a10.49512,10.49512,0,1,0,0,14.8496A10.51269,10.51269,0,0,0,23.4248,8.5752Zm-.707,14.14257a9.49561,9.49561,0,1,1,0-13.43554A9.51305,9.51305,0,0,1,22.71777,22.71777Zm-.70752-12.728A8.49924,8.49924,0,1,0,24.5,16,8.44392,8.44392,0,0,0,22.01025,9.98975Zm-.707,11.31347A7.49961,7.49961,0,1,1,23.5,16,7.45074,7.45074,0,0,1,21.30322,21.30322ZM16.5,16.5v1H18a.5.5,0,0,1,0,1H16.5V20a.5.5,0,0,1-1,0V18.5H14a.5.5,0,0,1,0-1h1.5v-1H14a.5.5,0,0,1,0-1h1.164l-1.72894-3.21777a.50006.50006,0,1,1,.88086-.47364l1.668,3.10547,1.56884-3.13769a.50006.50006,0,0,1,.89454.44726L16.80908,15.5H18a.5.5,0,0,1,0,1Z"/>
</svg>
