<svg xmlns="http://www.w3.org/2000/svg" viewBox="0 0 32 32">
  <defs>
    <style>
      .a {
        fill: #16191a;
      }
    </style>
  </defs>
  <path class="a" d="M17.5,17a.5.5,0,1,1-.50775-.5h.01019A.4988.4988,0,0,1,17.5,17Zm3.50244-.5h-.01019A.49432.49432,0,0,0,20.5,17a.5.5,0,1,0,.50244-.5Zm-12,0H8.99225A.49432.49432,0,0,0,8.5,17a.5.5,0,1,0,.50244-.5Zm0,4H8.99225A.49432.49432,0,0,0,8.5,21a.5.5,0,1,0,.50244-.5Zm4,0h-.01019A.49432.49432,0,0,0,12.5,21a.5.5,0,1,0,.50244-.5Zm4,0h-.01019A.49432.49432,0,0,0,16.5,21a.5.5,0,1,0,.50244-.5Zm4,0h-.01019A.49432.49432,0,0,0,20.5,21a.5.5,0,1,0,.50244-.5Zm-12-8H8.99225A.49432.49432,0,0,0,8.5,13a.5.5,0,1,0,.50244-.5Zm4,1a.5.5,0,0,0,0-1h-.01019A.49432.49432,0,0,0,12.5,13,.50266.50266,0,0,0,13.00244,13.5Zm4-1h-.01019A.49432.49432,0,0,0,16.5,13a.5.5,0,1,0,.50244-.5ZM20.5,13a.5.5,0,1,0,.50244-.5h-.01019A.49432.49432,0,0,0,20.5,13ZM24,24.5H6a.49971.49971,0,0,1-.5-.5V8A.49971.49971,0,0,1,6,7.5H9.5V7a.5.5,0,0,1,1,0v.5h9V7a.5.5,0,0,1,1,0v.5H24a.49971.49971,0,0,1,.5.5V24A.49971.49971,0,0,1,24,24.5Zm-.5-16h-3V9a.5.5,0,0,1-1,0V8.5h-9V9a.5.5,0,0,1-1,0V8.5h-3v15h17Zm-9,8.5A1.5,1.5,0,1,1,13,15.5,1.50164,1.50164,0,0,1,14.5,17Zm-1,0a.5.5,0,1,0-.5.5A.50034.50034,0,0,0,13.5,17Zm13,9V10a.5.5,0,0,0-1,0V25.5H8a.5.5,0,0,0,0,1H26A.49971.49971,0,0,0,26.5,26Z"/>
</svg>
