<svg xmlns="http://www.w3.org/2000/svg" viewBox="0 0 32 32">
  <defs>
    <style>
      .a {
        fill: #16191a;
      }
    </style>
  </defs>
  <path class="a" d="M23.38366,13.64648A.49965.49965,0,0,0,23.03014,13.5h-6.5v-1h6.5a.49965.49965,0,0,0,.35352-.14648l2-2a.49983.49983,0,0,0,0-.707l-2-2A.49965.49965,0,0,0,23.03014,7.5h-14a.49962.49962,0,0,0-.35351.14648l-2,2a.49981.49981,0,0,0,0,.707l2,2A.49962.49962,0,0,0,9.03014,12.5h6.5v1h-6.5a.49962.49962,0,0,0-.35351.14648l-2,2a.49981.49981,0,0,0,0,.707l2,2A.49962.49962,0,0,0,9.03014,18.5h6.5v1h-6.5a.49962.49962,0,0,0-.35351.14648l-2,2a.49981.49981,0,0,0,0,.707l2,2A.49962.49962,0,0,0,9.03014,24.5h6.5V26a.5.5,0,0,0,1,0V18.5h6.5a.49965.49965,0,0,0,.35352-.14648l2-2a.49983.49983,0,0,0,0-.707ZM24.32311,10l-1.5,1.5h-6.293v-3h6.293ZM7.73717,10l1.5-1.5h6.293v3h-6.293Zm0,6,1.5-1.5h6.293v3h-6.293Zm0,6,1.5-1.5h6.293v3h-6.293Zm15.08594-4.5h-6.293v-3h6.293l1.5,1.5Z"/>
</svg>
