<svg xmlns="http://www.w3.org/2000/svg" viewBox="0 0 32 32">
  <defs>
    <style>
      .a {
        fill: #16191a;
      }
    </style>
  </defs>
  <path class="a" d="M11.01709,16.49756a2.5,2.5,0,1,1,2.5-2.5A2.50294,2.50294,0,0,1,11.01709,16.49756Zm0-4a1.5,1.5,0,1,0,1.5,1.5A1.50164,1.50164,0,0,0,11.01709,12.49756Zm3.92236,1.94189-6.3266,6.3266a5.904,5.904,0,0,1,.79371.62036l6.23992-6.23993a5.1635,5.1635,0,0,0,0-7.293.5.5,0,0,1,.707-.707A6.19349,6.19349,0,0,1,16.959,15.1499l-.25537.34619,4.55609,4.55652a5.04491,5.04491,0,0,1,1.40754-.00647l-4.658-4.65844a7.205,7.205,0,0,0-.94873-8.94825,1.49984,1.49984,0,0,0-2.1211,2.1211A4.163,4.163,0,0,1,14.93945,14.43945Zm-4.83886,7.60694h0ZM26,25a3.10191,3.10191,0,0,1-2.35547-1.146,2.01875,2.01875,0,0,0-3.29736-.00048,2.99042,2.99042,0,0,1-4.7085,0,2.01249,2.01249,0,0,0-3.29053,0A3.09344,3.09344,0,0,1,9.99658,25a3.09373,3.09373,0,0,1-2.35205-1.14648A2.11839,2.11839,0,0,0,6,23v1c.34717,0,.46875.0918.937.56006a3.96992,3.96992,0,0,0,6.11865,0C13.52393,24.0918,13.646,24,13.99316,24c.34766,0,.46973.0918.938.56055a3.97537,3.97537,0,0,0,6.12256.00049c.46973-.46924.59229-.561.9419-.561.35009,0,.47265.0918.94238.56152A4.05045,4.05045,0,0,0,26,26ZM9.99658,24a2.11838,2.11838,0,0,0,1.64453-.85352,2.98641,2.98641,0,0,1,4.70459,0,2.01593,2.01593,0,0,0,3.29444-.00048,2.9938,2.9938,0,0,1,4.71142.00048A2.12525,2.12525,0,0,0,26,24V23c-.34961,0-.47217-.0918-.94189-.561a3.97831,3.97831,0,0,0-6.12452-.00048c-.46972.46972-.59228.56152-.94238.56152-.34766,0-.46973-.0918-.938-.56055a3.97139,3.97139,0,0,0-6.11963.00049c-.46826.46826-.58984.56006-.937.56006s-.46924-.0918-.9375-.56006A4.04061,4.04061,0,0,0,6,21v1a3.09346,3.09346,0,0,1,2.35156,1.14648A2.11859,2.11859,0,0,0,9.99658,24Z"/>
</svg>
