<svg xmlns="http://www.w3.org/2000/svg" viewBox="0 0 32 32">
  <defs>
    <style>
      .a {
        fill: #16191a;
      }
    </style>
  </defs>
  <path class="a" d="M25.5,9.5H22V8a2.5,2.5,0,0,0-5,0V9.5H13.5a.49971.49971,0,0,0-.5.5v4.5h1v-4h3V12a.5.5,0,0,0,1,0V10.5h3V12a.5.5,0,0,0,1,0V10.5h3v11H15.45764l-.1,1H25.5A.49971.49971,0,0,0,26,22V10A.49971.49971,0,0,0,25.5,9.5ZM18,9.5V8a1.5,1.5,0,0,1,3,0V9.5Zm-3.5,6H10V12a.5.5,0,0,0-1,0v3.5H6.5a.50032.50032,0,0,0-.49756.5498l1,10A.50008.50008,0,0,0,7.5,26.5h6a.50008.50008,0,0,0,.49756-.4502l1-10A.50032.50032,0,0,0,14.5,15.5Zm-.55273,1-.1,1H10v-1ZM9,16.5v1H7.15271l-.1-1Zm4.04736,9H7.95264l-.69995-7h6.49462Z"/>
</svg>
