<svg xmlns="http://www.w3.org/2000/svg" viewBox="0 0 29 17"><path d="M29 8.5A6.41 6.41 0 0 0 22.7 2a6.162 6.162 0 0 0-4.46 1.91L14.5 7.78l-3.741-3.87A5.709 5.709 0 0 0 6.5 2 6.587 6.587 0 0 0 0 8.5c0 .088.01.173.014.26A.477.477 0 0 0 0 8.828V16.5a.5.5 0 0 0 1 0v-4.602a6.705 6.705 0 0 0 3 2.583V16.5a.5.5 0 0 0 1 0v-1.69a6.24 6.24 0 0 0 1.5.19 5.635 5.635 0 0 0 1.5-.203V16.5a.5.5 0 0 0 1 0v-2.09a6.552 6.552 0 0 0 1.759-1.32L12 11.806V16.5a.5.5 0 0 0 1 0v-5.729l1.858-1.922.003-.003L16 7.667V16.5a.5.5 0 0 0 1 0V6.633l1.96-2.028A5.321 5.321 0 0 1 20 3.789V16.5a.5.5 0 0 0 1 0V3.313a4.846 4.846 0 0 1 3-.139V16.5a.5.5 0 0 0 1 0V3.552A5.521 5.521 0 0 1 28 8.5a.492.492 0 0 0 .033.164.492.492 0 0 0-.033.164V16.5a.5.5 0 0 0 1 0V8.828a.492.492 0 0 0-.033-.164A.492.492 0 0 0 29 8.5Zm-18.96 3.895A4.758 4.758 0 0 1 6.5 14 5.573 5.573 0 0 1 1 8.5a5.466 5.466 0 0 1 1.5-3.723v5.71a4.612 4.612 0 0 0 1 1.314V3.923A5.433 5.433 0 0 1 6 3.026v9.922a4.229 4.229 0 0 0 .5.052 3.711 3.711 0 0 0 .5-.05v-9.9a4.606 4.606 0 0 1 2.5 1.081v7.384l1-1.035v-5.4l3.305 3.42ZM23.733 1h-2V0h2Zm-4.83 1.02-.403-.915L20.33.3l.403.915Zm7.637.017-1.811-.849.425-.905 1.81.85Z" style="fill:#fff"/></svg>