<svg xmlns="http://www.w3.org/2000/svg" viewBox="0 0 32 32">
  <defs>
    <style>
      .a {
        fill: #16191a;
      }
    </style>
  </defs>
  <path class="a" d="M20,25.5H16.5v-3H18a.49971.49971,0,0,0,.5-.5V16a.49971.49971,0,0,0-.5-.5H16.5V14.44946a4.50006,4.50006,0,1,0-1,0V15.5H14a.49971.49971,0,0,0-.5.5v6a.49971.49971,0,0,0,.5.5h1.5v3H12a.5.5,0,0,0,0,1h8a.5.5,0,0,0,0-1Zm-4-19a3.495,3.495,0,0,1,3.44946,3H12.55054A3.495,3.495,0,0,1,16,6.5Zm-3.44946,4h6.89892a3.48313,3.48313,0,0,1-6.89892,0ZM14.5,16.5h3v5h-3Z"/>
</svg>
