<svg xmlns="http://www.w3.org/2000/svg" viewBox="0 0 32 32">
  <defs>
    <style>
      .a {
        fill: #16191a;
      }
    </style>
  </defs>
  <path class="a" d="M20.55784,12.5a1.5,1.5,0,1,0-1.5,1.5A1.50164,1.50164,0,0,0,20.55784,12.5Zm-1.5.5a.5.5,0,1,1,.5-.5A.50034.50034,0,0,1,19.05784,13Zm7.5,1.5v3.52783A3.26394,3.26394,0,0,1,21.945,21H20.55784v3.5a.5.5,0,0,1-1,0v-4a.49972.49972,0,0,1,.5-.5h2a.50047.50047,0,0,1,.22364.05273,2.26394,2.26394,0,0,0,3.27636-2.0249V15h-1.5a.5.5,0,0,1,0-1h.793l-3.97509-3.9751A3.47666,3.47666,0,0,0,18.40111,9H16.05784a.49962.49962,0,0,1-.35351-.14648L13.86351,7.0127A1.5,1.5,0,0,0,14.05784,10a.5.5,0,0,1,0,1,2.50189,2.50189,0,0,1-2.43743-1.95941A4.06636,4.06636,0,0,0,8.029,12.53076L6.43773,24.56543a.49991.49991,0,1,1-.99121-.13086L7.03782,12.3999a5.06581,5.06581,0,0,1,4.56635-4.35779A2.501,2.501,0,0,1,14.05784,6a.49963.49963,0,0,1,.35352.14648L16.26488,8h2.13623a4.47016,4.47016,0,0,1,3.18164,1.31787l4.828,4.828a.503.503,0,0,1,.14709.35413Zm-11,.70161a4.00006,4.00006,0,0,0,.42239,1.789l1.41941,2.83844-.89453.44727-1.31383-2.62766a5.99994,5.99994,0,0,1-.63344-2.68328V12.5h1ZM14.19128,17.885l1.4193,2.83859-.89453.44727-1.31362-2.62724a8.00006,8.00006,0,0,1-.84459-3.57771V12.5h1v2.70176A5.99994,5.99994,0,0,0,14.19128,17.885Z"/>
</svg>
