<svg xmlns="http://www.w3.org/2000/svg" viewBox="0 0 29 12.999"><path d="M28.616.014a.5.5 0 0 0-.562.26C27.976.426 26.094 4 20.5 4h-3.592A1.482 1.482 0 0 0 17 3.5v-1a.5.5 0 0 0-.5-.5h-2a.5.5 0 0 0-.5.5v1a1.482 1.482 0 0 0 .092.5h-1.184A1.482 1.482 0 0 0 13 3.5v-1a.5.5 0 0 0-.5-.5h-2a.5.5 0 0 0-.5.5v1a1.482 1.482 0 0 0 .092.5H.5a.5.5 0 0 0-.5.5v2a.5.5 0 0 0 .5.5h5.776A4.447 4.447 0 0 0 6 8.5a4.505 4.505 0 0 0 4.5 4.5h6a4.502 4.502 0 0 0 4.244-5.997c5.405.102 7.234 3.573 7.31 3.722A.5.5 0 0 0 29 10.5V.5a.5.5 0 0 0-.384-.485ZM15 3.499V3h1v.5a.5.5 0 0 1-1 0ZM11 3h1v.5a.5.5 0 0 1-1 0ZM1 6V5h6.706a4.521 4.521 0 0 0-.944 1Zm27 2.975a9.767 9.767 0 0 0-7.5-2.975h-10a2.5 2.5 0 0 0 0 5h6a2.499 2.499 0 0 0 1.999-4h1.165a3.502 3.502 0 0 1-3.164 5h-6a3.5 3.5 0 0 1 0-7h10A9.767 9.767 0 0 0 28 2.025Zm-10-.475a1.502 1.502 0 0 1-1.5 1.5h-6a1.5 1.5 0 0 1 0-3h6A1.502 1.502 0 0 1 18 8.5Z" style="fill:#b39500"/></svg>